<svg xmlns="http://www.w3.org/2000/svg" xmlns:xlink="http://www.w3.org/1999/xlink" version="1.1" x="0px" y="0px" viewBox="0 0 100 100" enable-background="new 0 0 100 100" xml:space="preserve"><path fill="rgba(255,255,255,0.85)" d="M57.124,8.472c-19.778,0-35.812,16.034-35.812,35.812c0,19.779,16.034,35.813,35.812,35.813  c19.779,0,35.812-16.034,35.812-35.813C92.937,24.505,76.903,8.472,57.124,8.472z M57.124,56.85  c-6.938,0-12.564-5.627-12.564-12.566c0-6.939,5.626-12.565,12.564-12.565c6.94,0,12.565,5.625,12.565,12.565  C69.689,51.223,64.064,56.85,57.124,56.85z"></path><circle fill="rgba(255,255,255,0.85)" cx="57.125" cy="44.284" r="2.426"></circle><path fill="rgba(255,255,255,0.85)" d="M29.835,88.39l-4.653-11.235l-1.605,0.666L13.36,53.157V42.285c1.985-0.499,3.453-2.294,3.453-4.433  c0-2.138-1.468-3.934-3.453-4.433v-5.114h4.063v-14.62H7.063v14.62h4.062v5.114c-1.983,0.499-3.453,2.295-3.453,4.433  c0,2.139,1.469,3.935,3.453,4.433l0.011,11.312l10.375,25.079l-3.908,1.617l0.371,0.894l-3.297,1.367l0.393,0.95l3.297-1.366  l3.89,9.391L29.835,88.39z"></path></svg>